<?xml version="1.0" encoding="UTF-8"?>
<svg version="1.1" xmlns="http://www.w3.org/2000/svg" width="100" height="98">
<path d="M0 0 C11.01508209 7.56727184 20.0059611 18.32210391 22.6953125 31.796875 C24.35350786 47.52382165 22.06549565 61.45979984 11.9453125 74.16796875 C6.50007335 79.95578917 0.37641655 85.14385892 -7.0546875 88.16796875 C-8.0446875 88.16796875 -9.0346875 88.16796875 -10.0546875 88.16796875 C-10.3846875 88.82796875 -10.7146875 89.48796875 -11.0546875 90.16796875 C-16.13692615 91.97253175 -21.86323382 91.43431898 -27.1796875 91.48046875 C-28.27023438 91.50947266 -29.36078125 91.53847656 -30.484375 91.56835938 C-39.90965517 91.64164206 -47.18119658 89.34197707 -55.0546875 84.16796875 C-55.83328125 83.74515625 -56.611875 83.32234375 -57.4140625 82.88671875 C-67.08086016 76.59472027 -72.58153044 64.91294255 -76.4296875 54.41796875 C-79.14651334 40.80553927 -76.93647211 27.36097514 -69.9296875 15.41796875 C-54.26433911 -7.43148845 -23.71497089 -14.22291732 0 0 Z M-71.0546875 25.16796875 C-70.0546875 27.16796875 -70.0546875 27.16796875 -70.0546875 27.16796875 Z M15.9453125 25.16796875 C16.9453125 27.16796875 16.9453125 27.16796875 16.9453125 27.16796875 Z M-40.9921875 31.79296875 C-44.30006626 37.20586126 -44.45911895 41.74138007 -43.4296875 47.91796875 C-41.379179 52.7646252 -38.36930246 55.29155878 -34.0546875 58.16796875 C-24.89427317 59.20398874 -24.89427317 59.20398874 -16.3671875 56.48046875 C-11.97843682 52.09171807 -10.54120037 48.48681788 -10.0546875 42.375 C-10.0546875 36.82123536 -12.39540206 33.1599165 -16.0546875 29.16796875 C-24.12803967 23.78573397 -34.06437442 25.60215707 -40.9921875 31.79296875 Z M-72.0546875 27.16796875 C-71.0546875 30.16796875 -71.0546875 30.16796875 -71.0546875 30.16796875 Z M16.9453125 27.16796875 C17.9453125 30.16796875 17.9453125 30.16796875 17.9453125 30.16796875 Z M-74.0546875 36.16796875 C-73.0546875 38.16796875 -73.0546875 38.16796875 -73.0546875 38.16796875 Z M18.9453125 36.16796875 C19.9453125 38.16796875 19.9453125 38.16796875 19.9453125 38.16796875 Z M-72.0546875 55.16796875 C-71.0546875 57.16796875 -71.0546875 57.16796875 -71.0546875 57.16796875 Z M16.9453125 55.16796875 C17.9453125 57.16796875 17.9453125 57.16796875 17.9453125 57.16796875 Z M14.9453125 60.16796875 C15.9453125 62.16796875 15.9453125 62.16796875 15.9453125 62.16796875 Z M13.9453125 62.16796875 C14.9453125 64.16796875 14.9453125 64.16796875 14.9453125 64.16796875 Z " fill="#A19292" transform="translate(77.0546875,6.83203125)"/>
<path d="M0 0 C11.19124487 7.68829424 19.87340599 18.44084131 22.77734375 32.01171875 C23.14615311 36.74620167 22.52470414 41.47019871 21.9453125 46.16796875 C19.96855326 43.20282989 19.55369147 41.32654154 19.05981445 37.875 C17.39111783 26.37084088 13.09629476 16.00426139 4.3984375 7.95703125 C-0.91734843 4.08023196 -8.3815873 -0.83203125 -15.0546875 -0.83203125 C-15.23644531 0.38033203 -15.23644531 0.38033203 -15.421875 1.6171875 C-15.58945312 2.68582031 -15.75703125 3.75445312 -15.9296875 4.85546875 C-16.09210937 5.91121094 -16.25453125 6.96695312 -16.421875 8.0546875 C-17.0167375 10.98126413 -17.91377921 13.42084056 -19.0546875 16.16796875 C-19.44386106 17.72211939 -19.79990694 19.28506329 -20.1171875 20.85546875 C-20.59224773 23.19150875 -20.98692672 25.03244719 -22.0546875 27.16796875 C-23.2096875 27.10609375 -24.3646875 27.04421875 -25.5546875 26.98046875 C-31.40338718 27.00120882 -36.06020331 28.42918766 -40.4921875 32.29296875 C-42.30462955 35.62786212 -42.65163285 38.23761064 -42.87890625 41.984375 C-43.0581409 44.21086759 -43.27585821 46.07043986 -44.0546875 48.16796875 C-52.63925827 53.51307885 -62.05857399 55.38340223 -72.0546875 55.16796875 C-66.36740112 67.07828518 -66.36740112 67.07828518 -57.0546875 76.16796875 C-56.3534375 76.88984375 -55.6521875 77.61171875 -54.9296875 78.35546875 C-50.78581685 82.36121038 -46.23543915 83.86664354 -40.7421875 85.35546875 C-38.86080078 85.87173828 -38.86080078 85.87173828 -36.94140625 86.3984375 C-35.98878906 86.65238281 -35.03617188 86.90632813 -34.0546875 87.16796875 C-36.0546875 90.16796875 -36.0546875 90.16796875 -37.87109375 90.96484375 C-43.69580376 91.50667724 -50.33228928 87.27125901 -55.0546875 84.16796875 C-55.83328125 83.74515625 -56.611875 83.32234375 -57.4140625 82.88671875 C-67.08086016 76.59472027 -72.58153044 64.91294255 -76.4296875 54.41796875 C-79.14651334 40.80553927 -76.93647211 27.36097514 -69.9296875 15.41796875 C-54.26433911 -7.43148845 -23.71497089 -14.22291732 0 0 Z M-71.0546875 25.16796875 C-70.0546875 27.16796875 -70.0546875 27.16796875 -70.0546875 27.16796875 Z M-72.0546875 27.16796875 C-71.0546875 30.16796875 -71.0546875 30.16796875 -71.0546875 30.16796875 Z M-74.0546875 36.16796875 C-73.0546875 38.16796875 -73.0546875 38.16796875 -73.0546875 38.16796875 Z " fill="#DAD5D5" transform="translate(77.0546875,6.83203125)"/>
<path d="M0 0 C0.48919922 1.77503906 0.48919922 1.77503906 0.98828125 3.5859375 C3.24359134 11.74924514 5.49908289 19.90760155 8 28 C7.46890625 28.20753906 6.9378125 28.41507813 6.390625 28.62890625 C0.71653672 31.10355424 -1.41024787 33.38887038 -4 39 C-13.57870211 39.70374138 -23.86261301 38.42492466 -32 33 C-31.61289229 22.54809184 -25.90211228 15.09848006 -18.50390625 8.05078125 C-13.06373127 3.59509971 -7.24373426 -0.50810366 0 0 Z " fill="#FE684E" transform="translate(38,6)"/>
<path d="M0 0 C10.03837114 1.07992257 17.07063476 6.2212247 23.94921875 13.4296875 C28.4472789 19.06725622 32.52675534 25.59841208 32 33 C22.32742356 37.08309579 14.55250679 39.38923181 4 39 C3.484375 37.9275 2.96875 36.855 2.4375 35.75 C0.06644627 31.53003795 -2.69743642 30.06854018 -7 28 C-5.09445726 18.50115817 -2.77870808 9.28116709 0 0 Z " fill="#F6522F" transform="translate(62,6)"/>
<path d="M0 0 C1.17755859 0.50660156 1.17755859 0.50660156 2.37890625 1.0234375 C10.94795725 4.66134136 18.71801 7.20019134 28 8 C28 9.65 28 11.3 28 13 C27.34 13 26.68 13 26 13 C25.814375 14.423125 25.814375 14.423125 25.625 15.875 C25 19 25 19 23 21 C22.12396136 22.08249361 21.24909038 23.1659326 20.375 24.25 C14.74634086 30.80317321 7.21757278 36.19093175 -1 39 C-3.1640625 39.0078125 -3.1640625 39.0078125 -5 38 C-6.1953125 35.33984375 -6.1953125 35.33984375 -7.125 31.9375 C-7.45242187 30.75929688 -7.77984375 29.58109375 -8.1171875 28.3671875 C-8.40851562 27.25601563 -8.69984375 26.14484375 -9 25 C-9.34417969 23.79730469 -9.34417969 23.79730469 -9.6953125 22.5703125 C-10.77783674 18.65187969 -11.73236375 15.02800065 -11 11 C-6.15789474 7 -6.15789474 7 -3 7 C-2.690625 6.21625 -2.38125 5.4325 -2.0625 4.625 C-1 2 -1 2 0 0 Z " fill="#F7502B" transform="translate(66,54)"/>
<path d="M0 0 C0.5775 0.7425 1.155 1.485 1.75 2.25 C4.89617781 6.09532844 7.50137288 8.87252426 12 11 C11.19279381 20.84791557 8.63149234 29.83480504 5 39 C-5.12371006 37.30971804 -14.01420782 31.54237374 -19.98046875 23.24609375 C-27 12.37667526 -27 12.37667526 -27 8 C-25.94941406 7.82984375 -24.89882813 7.6596875 -23.81640625 7.484375 C-16.06295786 6.16782137 -8.99209416 4.78596318 -2 1 C-1.34 0.67 -0.68 0.34 0 0 Z " fill="#F75534" transform="translate(33,54)"/>
<path d="M0 0 C1.91740583 0.78987473 3.83389641 1.58197148 5.75 2.375 C7.35101563 3.03628906 7.35101563 3.03628906 8.984375 3.7109375 C11.37555926 4.73307585 13.69383183 5.80213595 16 7 C15.01 7 14.02 7 13 7 C12.95875 7.66 12.9175 8.32 12.875 9 C11.3729774 14.14979177 7.75888684 18.24111316 4 22 C1.66989091 22.67784992 -0.66359824 23.34416793 -3 24 C-6.16666667 25.83333333 -6.16666667 25.83333333 -8 29 C-8.50904657 27.12743583 -9.00682455 25.25180659 -9.5 23.375 C-9.7784375 22.33085938 -10.056875 21.28671875 -10.34375 20.2109375 C-11.00322643 16.98421355 -11.32601202 14.27874945 -11 11 C-6.15789474 7 -6.15789474 7 -3 7 C-2.690625 6.21625 -2.38125 5.4325 -2.0625 4.625 C-1 2 -1 2 0 0 Z " fill="#FE684E" transform="translate(66,54)"/>
<path d="M0 0 C1.01171875 2.21484375 1.01171875 2.21484375 1.6875 4.9375 C2.58802317 8.56435646 2.58802317 8.56435646 4 12 C3.46890625 12.20753906 2.9378125 12.41507813 2.390625 12.62890625 C-3.28346328 15.10355424 -5.41024787 17.38887038 -8 23 C-9.74965358 23.05429959 -11.49979787 23.09292823 -13.25 23.125 C-14.22453125 23.14820312 -15.1990625 23.17140625 -16.203125 23.1953125 C-19.0196498 22.99862781 -20.60949036 22.44568916 -23 21 C-22.03894498 12.8310323 -15.92167256 7.19003734 -10 2 C-4.01269773 -1.79963413 -4.01269773 -1.79963413 0 0 Z " fill="#C03519" transform="translate(42,22)"/>
<path d="M0 0 C3.3 0 6.6 0 10 0 C10.67466072 2.87333181 11.3399234 5.74831482 12 8.625 C12.19078125 9.43324219 12.3815625 10.24148437 12.578125 11.07421875 C13.57925543 15.47204169 14.2353082 19.45561039 14 24 C9.84373632 25.00926479 5.95634906 25.10239579 1.6875 25.0625 C0.43324219 25.05347656 -0.82101563 25.04445313 -2.11328125 25.03515625 C-3.06589844 25.02355469 -4.01851562 25.01195313 -5 25 C-4.29058623 19.43670254 -3.18398149 14.02851955 -1.9375 8.5625 C-1.75123047 7.73556641 -1.56496094 6.90863281 -1.37304688 6.05664062 C-0.9177995 4.03720996 -0.45924139 2.01852613 0 0 Z " fill="#E1D9D8" transform="translate(45,65)"/>
<path d="M0 0 C0.38095238 10.70899471 0.38095238 10.70899471 -2 16 C-4 18 -4 18 -7.0625 18.375 C-13.12540535 17.79758044 -17.9708221 15.35278527 -23 12 C-23.29296875 9.8359375 -23.29296875 9.8359375 -23.1875 7.375 C-23.16042969 6.55773438 -23.13335937 5.74046875 -23.10546875 4.8984375 C-23.07066406 4.27195312 -23.03585938 3.64546875 -23 3 C-22.03578125 2.86722656 -21.0715625 2.73445313 -20.078125 2.59765625 C-18.18320313 2.33275391 -18.18320313 2.33275391 -16.25 2.0625 C-14.99703125 1.88847656 -13.7440625 1.71445312 -12.453125 1.53515625 C-9.19832049 1.09245362 -9.19832049 1.09245362 -6.859375 0.43359375 C-4.54151895 -0.1069147 -2.37109254 -0.06586368 0 0 Z " fill="#D9D0CE" transform="translate(89,42)"/>
<path d="M0 0 C2.97 0 5.94 0 9 0 C9.36351562 0.78503906 9.72703125 1.57007813 10.1015625 2.37890625 C13.15218838 8.75393212 16.24671721 13.79402361 21 19 C21 19.66 21 20.32 21 21 C21.61488281 21.20496094 22.22976562 21.40992187 22.86328125 21.62109375 C26.2421875 22.74739583 29.62109375 23.87369792 33 25 C33 26.65 33 28.3 33 30 C30.23938933 31.10424427 29.11762885 31.04167422 26.265625 30.03125 C13.84544149 23.72462832 5.63787824 15.99996197 0 3 C0 2.01 0 1.02 0 0 Z " fill="#EB4924" transform="translate(6,62)"/>
<path d="M0 0 C13.99304724 0.91757687 25.13506781 6.54084077 34.8125 16.75 C42.15345462 25.71443497 46.5273144 35.9719235 45.625 47.5 C45.42971517 49.33476912 45.22585507 51.16874268 45 53 C43.02324076 50.03486114 42.60837897 48.15857279 42.11450195 44.70703125 C40.44666246 33.20878132 36.15782218 22.80717138 27.4375 14.78515625 C20.32757806 9.57804996 12.77973689 6.02288197 4 5 C1.5625 3.9375 1.5625 3.9375 0 3 C0 2.01 0 1.02 0 0 Z " fill="#D7CCCB" transform="translate(54,0)"/>
<path d="M0 0 C1.98 0 3.96 0 6 0 C6 1.65 6 3.3 6 5 C5.34 5 4.68 5 4 5 C3.87625 5.94875 3.7525 6.8975 3.625 7.875 C3 11 3 11 1 13 C0.12396136 14.08249361 -0.75090962 15.1659326 -1.625 16.25 C-7.25365914 22.80317321 -14.78242722 28.19093175 -23 31 C-25.296875 30.62890625 -25.296875 30.62890625 -27 30 C-27 28.68 -27 27.36 -27 26 C-23.91190305 24.23537317 -22.76687864 24 -19 24 C-19 23.34 -19 22.68 -19 22 C-17.34586306 20.80650879 -15.64976797 19.67098034 -13.9375 18.5625 C-7.20482966 13.81922515 -2.61737104 7.85211312 0 0 Z " fill="#A42E12" transform="translate(88,62)"/>
<path d="M0 0 C0.66 0.33 1.32 0.66 2 1 C2.6328125 3.72265625 2.6328125 3.72265625 3.125 7.0625 C3.29257813 8.16722656 3.46015625 9.27195312 3.6328125 10.41015625 C3.75398438 11.26480469 3.87515625 12.11945312 4 13 C4.66 11.68 5.32 10.36 6 9 C6.05449838 10.72880982 6.09301688 12.45812712 6.125 14.1875 C6.14820312 15.15042969 6.17140625 16.11335938 6.1953125 17.10546875 C5.98896101 20.1635978 5.38418613 22.27518604 4 25 C3.34 25.33 2.68 25.66 2 26 C1 22.125 1 22.125 1 21 C0.34 21.99 -0.32 22.98 -1 24 C-3.6015625 24.29296875 -3.6015625 24.29296875 -6.625 24.1875 C-8.12933594 24.14689453 -8.12933594 24.14689453 -9.6640625 24.10546875 C-10.43492188 24.07066406 -11.20578125 24.03585938 -12 24 C-11.175 23.443125 -10.35 22.88625 -9.5 22.3125 C-6.7254586 20.25072867 -6.7254586 20.25072867 -6.6875 17.25 C-6.790625 16.5075 -6.89375 15.765 -7 15 C-6.34 15 -5.68 15 -5 15 C-5 11.7 -5 8.4 -5 5 C-5.66 4.67 -6.32 4.34 -7 4 C-4.69 3.34 -2.38 2.68 0 2 C0 1.34 0 0.68 0 0 Z " fill="#9D9999" transform="translate(94,37)"/>
<path d="M0 0 C0 1.32 0 2.64 0 4 C-0.61746094 4.20753906 -1.23492187 4.41507813 -1.87109375 4.62890625 C-11.15457965 8.00600386 -17.81083184 12.03793092 -22.4375 21 C-24.37249705 25.26664169 -25.96216585 29.43352973 -27 34 C-28.65 33.67 -30.3 33.34 -32 33 C-31.61289229 22.54809184 -25.90211228 15.09848006 -18.50390625 8.05078125 C-13.06373127 3.59509971 -7.24373426 -0.50810366 0 0 Z " fill="#FA593A" transform="translate(38,6)"/>
<path d="M0 0 C6.59372379 0.28668364 12.04965024 2.57401404 17 7 C18.68979542 10.25480595 19.4122273 13.39917892 20 17 C20.33154966 18.66702241 20.66438231 20.33379183 21 22 C14.25 19.375 14.25 19.375 12 16 C11.154375 15.525625 10.30875 15.05125 9.4375 14.5625 C7 13 7 13 6.125 10.9375 C6 9 6 9 7 7 C3.58357241 6.74984127 3.58357241 6.74984127 0 7 C-0.66 7.99 -1.32 8.98 -2 10 C-1.54177532 6.53058454 -1.10868317 3.32604951 0 0 Z " fill="#F45432" transform="translate(62,6)"/>
<path d="M0 0 C2.43739492 2.25711423 4.11998465 4.62473216 5.875 7.4375 C8.22598879 11.03381454 10.46948509 13.49147625 14 16 C14.66 16.680625 15.32 17.36125 16 18.0625 C20.20295334 22.13411105 24.72697731 23.67366675 30.3125 25.1875 C31.56675781 25.53167969 32.82101563 25.87585938 34.11328125 26.23046875 C35.06589844 26.48441406 36.01851562 26.73835938 37 27 C35 30 35 30 33.18359375 30.796875 C27.35888374 31.33870849 20.72239822 27.10329026 16 24 C15.2265625 23.5875 14.453125 23.175 13.65625 22.75 C10.55499318 20.70681903 8.62771782 18.45947034 6.3125 15.5625 C5.54550781 14.61503906 4.77851563 13.66757813 3.98828125 12.69140625 C0.66519935 8.19316769 -0.2561868 5.63610956 0 0 Z " fill="#D6C2C1" transform="translate(6,67)"/>
<path d="M0 0 C0.33 1.65 0.66 3.3 1 5 C-0.5778125 5.0928125 -0.5778125 5.0928125 -2.1875 5.1875 C-7.85807266 6.3959827 -9.83363626 9.47724734 -13.25 13.9375 C-15.04412432 17.07721757 -15.65966603 19.42649331 -16 23 C-17.98 22.67 -19.96 22.34 -22 22 C-22.81379941 19.68655766 -23.18025173 18.4688515 -22.28515625 16.140625 C-18.03671095 9.57114408 -9.18008041 -3.88388018 0 0 Z " fill="#F24F2A" transform="translate(42,22)"/>
<path d="M0 0 C0.495 1.485 0.495 1.485 1 3 C-1.70879335 4.35439668 -4.00933268 4.06501451 -7 4 C-7.33 4.66 -7.66 5.32 -8 6 C-9.2375 6.1546875 -9.2375 6.1546875 -10.5 6.3125 C-19.47643309 8.07572793 -27.04044528 14.28445564 -33 21 C-36.68274672 26.64108571 -39.99009193 32.26727955 -41 39 C-41.33 39 -41.66 39 -42 39 C-42.42456668 33.79512704 -41.20178413 30.86596663 -38.625 26.375 C-37.99851562 25.26898437 -37.37203125 24.16296875 -36.7265625 23.0234375 C-36.15679687 22.02570312 -35.58703125 21.02796875 -35 20 C-34.67773438 19.31164062 -34.35546875 18.62328125 -34.0234375 17.9140625 C-28.87085931 8.27756131 -18.76388833 3.86980806 -8.82421875 0.62890625 C-5.8007584 -0.04436777 -3.08771826 -0.11402209 0 0 Z " fill="#DABFBE" transform="translate(46,0)"/>
<path d="M0 0 C6.70332908 2.85789253 11.46818904 9.28574592 14.5 15.75 C15.76710899 18.92332998 16.44580152 21.5450382 16 25 C14.02 25.33 12.04 25.66 10 26 C8.40861915 21.82262526 7.78721942 18.46839215 8 14 C7.34 14 6.68 14 6 14 C3.27651711 10.25521103 2.17282491 6.43998 1 2 C0.67 1.34 0.34 0.68 0 0 Z " fill="#D74222" transform="translate(78,14)"/>
<path d="M0 0 C0.33 0 0.66 0 1 0 C1.66 3.63 2.32 7.26 3 11 C1.70449219 11.14115234 1.70449219 11.14115234 0.3828125 11.28515625 C-3.37917031 12.0801249 -5.85956346 13.42896422 -9.125 15.4375 C-18.2526096 21 -18.2526096 21 -21 21 C-19.51724635 16.10691296 -16.86626517 12.30226454 -13 9 C-10.07554064 7.60112516 -7.14791556 6.74405277 -4 6 C-2.87464844 5.71769531 -2.87464844 5.71769531 -1.7265625 5.4296875 C-1.15679687 5.28789062 -0.58703125 5.14609375 0 5 C0 3.35 0 1.7 0 0 Z " fill="#FE7B68" transform="translate(38,8)"/>
<path d="M0 0 C0.99 0 1.98 0 3 0 C2.06881839 7.25272438 -2.95904663 13.21909326 -8.23828125 18.046875 C-13.38675595 22 -13.38675595 22 -16 22 C-16 22.66 -16 23.32 -16 24 C-20.455 25.485 -20.455 25.485 -25 27 C-25 26.01 -25 25.02 -25 24 C-24.443125 23.731875 -23.88625 23.46375 -23.3125 23.1875 C-17.79801526 20.35573757 -13.81222308 17.14628825 -9.62890625 12.57421875 C-8 11 -8 11 -6 11 C-5.7525 10.113125 -5.505 9.22625 -5.25 8.3125 C-3.94335287 4.84988511 -2.57023184 2.64811765 0 0 Z " fill="#D53D1A" transform="translate(85,62)"/>
<path d="M0 0 C2.19510603 0.25361783 4.38228739 0.57765908 6.5625 0.9375 C8.35880859 1.22947266 8.35880859 1.22947266 10.19140625 1.52734375 C11.11824219 1.68332031 12.04507813 1.83929687 13 2 C12.125 8.75 12.125 8.75 11 11 C9.54207116 11.05399736 8.08357288 11.09279177 6.625 11.125 C5.81289063 11.14820313 5.00078125 11.17140625 4.1640625 11.1953125 C2 11 2 11 0 9 C-0.62931533 6.32404177 -0.78130812 3.75551768 -1 1 C-0.67 0.67 -0.34 0.34 0 0 Z " fill="#B9A2A0" transform="translate(44,23)"/>
<path d="M0 0 C0.75 2.1875 0.75 2.1875 1 5 C-0.4375 7.75 -0.4375 7.75 -3 10 C-5.73368718 10.71336218 -8.15058312 10.85752916 -11 11 C-11.33 11.99 -11.66 12.98 -12 14 C-12.66 10.7 -13.32 7.4 -14 4 C-12.35 3.67 -10.7 3.34 -9 3 C-7.75492351 2.51843735 -6.52291218 2.00054566 -5.3125 1.4375 C-2 0 -2 0 0 0 Z " fill="#FE7D69" transform="translate(69,65)"/>
<path d="M0 0 C1.37478516 0.01740234 1.37478516 0.01740234 2.77734375 0.03515625 C3.69644531 0.04417969 4.61554687 0.05320313 5.5625 0.0625 C6.27277344 0.07410156 6.98304687 0.08570313 7.71484375 0.09765625 C7.71484375 3.06765625 7.71484375 6.03765625 7.71484375 9.09765625 C6.26220337 9.96146915 4.80252745 10.81346079 3.33984375 11.66015625 C2.12167969 12.37365234 2.12167969 12.37365234 0.87890625 13.1015625 C0.16476563 13.43027344 -0.549375 13.75898437 -1.28515625 14.09765625 C-1.94515625 13.76765625 -2.60515625 13.43765625 -3.28515625 13.09765625 C-2.91390625 12.23140625 -2.54265625 11.36515625 -2.16015625 10.47265625 C-1.14075577 6.54068299 -1.71203129 4.76828116 -3.28515625 1.09765625 C-2.28515625 0.09765625 -2.28515625 0.09765625 0 0 Z " fill="#C2A5A2" transform="translate(26.28515625,44.90234375)"/>
<path d="M0 0 C1.74627478 2.61941217 2.38722388 4.03824877 3 7 C-0.0611278 7.36676073 -3.12400085 7.71615254 -6.1875 8.0625 C-7.05181641 8.16626953 -7.91613281 8.27003906 -8.80664062 8.37695312 C-13.08881539 8.85275032 -16.79534487 9.24485649 -21 8 C-20.67 6.02 -20.34 4.04 -20 2 C-19.67 2.66 -19.34 3.32 -19 4 C-9.595 3.505 -9.595 3.505 0 3 C0 2.01 0 1.02 0 0 Z " fill="#9B9594" transform="translate(59,86)"/>
<path d="M0 0 C6.26160517 6.48523392 8.93332315 16.11530921 9 25 C8.80545474 27.39202243 8.45239361 29.63750001 8 32 C5.31684432 27.97526648 4.97055885 23.83839695 4.23242188 19.15625 C3.6303622 15.6170705 2.88549818 12.48506286 1.4140625 9.19921875 C-0.07326902 5.83423391 -0.26573615 3.6317274 0 0 Z " fill="#D3C9C8" transform="translate(91,21)"/>
<path d="M0 0 C0.66 0.66 1.32 1.32 2 2 C5.28764015 2.32057871 5.28764015 2.32057871 9 2.25 C10.8871875 2.25773437 10.8871875 2.25773437 12.8125 2.265625 C16.09282361 2.33780455 16.09282361 2.33780455 18 0 C18 1.98 18 3.96 18 6 C13.84373632 7.00926479 9.95634906 7.10239579 5.6875 7.0625 C4.43324219 7.05347656 3.17898437 7.04445313 1.88671875 7.03515625 C0.93410156 7.02355469 -0.01851562 7.01195313 -1 7 C-0.67 4.69 -0.34 2.38 0 0 Z " fill="#BEBABA" transform="translate(41,83)"/>
<path d="M0 0 C1.67542976 0.28604898 3.34385343 0.61781233 5 1 C5 1.66 5 2.32 5 3 C5.8353125 3.3403125 5.8353125 3.3403125 6.6875 3.6875 C9.71572375 5.40622159 11.77323664 7.32788397 14 10 C13.8125 12.3125 13.8125 12.3125 13 14 C7.25 11.375 7.25 11.375 5 8 C4.154375 7.525625 3.30875 7.05125 2.4375 6.5625 C0 5 0 5 -0.875 2.875 C-0.91625 2.25625 -0.9575 1.6375 -1 1 C-0.67 0.67 -0.34 0.34 0 0 Z " fill="#FB6247" transform="translate(69,14)"/>
<path d="M0 0 C7.34591094 2.02434289 14.18566888 4.59283444 21 8 C20.67 9.32 20.34 10.64 20 12 C12.67325338 10.80940367 5.35167857 7.17328929 0 2 C0 1.34 0 0.68 0 0 Z " fill="#C5391B" transform="translate(18,81)"/>
<path d="M0 0 C1.65 0.99 3.3 1.98 5 3 C1.40769802 7.53496279 -1.91189536 11.1732752 -7 14 C-7.99 14 -8.98 14 -10 14 C-10.33 13.01 -10.66 12.02 -11 11 C-5.25 7 -5.25 7 -3 7 C-2.690625 6.21625 -2.38125 5.4325 -2.0625 4.625 C-1 2 -1 2 0 0 Z " fill="#F8593B" transform="translate(66,54)"/>
<path d="M0 0 C0.99 0.66 1.98 1.32 3 2 C2.34 2 1.68 2 1 2 C0.731875 2.639375 0.46375 3.27875 0.1875 3.9375 C-1 6 -1 6 -4 7 C-6.60146329 10.97870856 -8.42069896 14.22076642 -9 19 C-10.32 18.67 -11.64 18.34 -13 18 C-11.32784045 11.53138279 -9.08337963 6.48679718 -4 2 C-1.80859375 0.80859375 -1.80859375 0.80859375 0 0 Z " fill="#CA3917" transform="translate(38,26)"/>
<path d="M0 0 C-0.59554687 0.25394531 -1.19109375 0.50789063 -1.8046875 0.76953125 C-5.99787002 3.11980259 -9.12979309 7.53519774 -10.72265625 12.046875 C-10.87605469 12.67078125 -11.02945312 13.2946875 -11.1875 13.9375 C-11.455625 14.948125 -11.72375 15.95875 -12 17 C-12.99 17.33 -13.98 17.66 -15 18 C-16 17 -16 17 -16.0625 14 C-15.21912907 8.49529516 -10.96986767 4.61633585 -7 1 C-3.56976744 -1.18992248 -3.56976744 -1.18992248 0 0 Z " fill="#E54622" transform="translate(38,27)"/>
<path d="M0 0 C0.99 0 1.98 0 3 0 C1.82450545 5.71137028 -1.05499167 10.61688296 -5.8125 14 C-6.534375 14.33 -7.25625 14.66 -8 15 C-6.56357103 12.07369353 -5.03061587 9.21883071 -3.4375 6.375 C-2.25527911 4.26313955 -1.08234999 2.16469998 0 0 Z M-10 15 C-9.34 15.33 -8.68 15.66 -8 16 C-9.24517965 17.13033298 -10.49636652 18.25405036 -11.75 19.375 C-12.44609375 20.00148438 -13.1421875 20.62796875 -13.859375 21.2734375 C-16.97854542 23.78926473 -18.95593635 25 -23 25 C-23 24.34 -23 23.68 -23 23 C-22.31292969 22.67386719 -21.62585937 22.34773438 -20.91796875 22.01171875 C-20.01691406 21.57472656 -19.11585937 21.13773437 -18.1875 20.6875 C-17.29417969 20.25824219 -16.40085937 19.82898438 -15.48046875 19.38671875 C-13.21068067 18.11778211 -11.70751829 16.93443102 -10 15 Z " fill="#E94722" transform="translate(82,61)"/>
<path d="M0 0 C0.73605469 0.27714844 1.47210938 0.55429688 2.23046875 0.83984375 C3.20628906 1.20207031 4.18210937 1.56429687 5.1875 1.9375 C6.63189453 2.47697266 6.63189453 2.47697266 8.10546875 3.02734375 C10.7368278 3.91156562 13.26894908 4.52568586 16 5 C14 8 14 8 12.1875 8.80078125 C9.33325218 9.06072168 7.62183069 8.31856415 5 7.1875 C3.7315625 6.65189453 3.7315625 6.65189453 2.4375 6.10546875 C0.26300267 5.11927845 -1.87457383 4.08731293 -4 3 C-2.68 2.67 -1.36 2.34 0 2 C0 1.34 0 0.68 0 0 Z " fill="#CBB9B9" transform="translate(27,89)"/>
<path d="M0 0 C1.65 0 3.3 0 5 0 C5.38882348 6.89801652 4.79990717 12.63129923 2 19 C1 20 1 20 -2.0625 20.0625 C-3.031875 20.041875 -4.00125 20.02125 -5 20 C-4.175 19.443125 -3.35 18.88625 -2.5 18.3125 C0.2745414 16.25072867 0.2745414 16.25072867 0.3125 13.25 C0.209375 12.5075 0.10625 11.765 0 11 C0.66 11 1.32 11 2 11 C2 7.7 2 4.4 2 1 C1.34 0.67 0.68 0.34 0 0 Z " fill="#BBB6B5" transform="translate(87,41)"/>
<path d="M0 0 C0 0.99 0 1.98 0 3 C-3.75399798 4.2039337 -7.33217412 4.09877617 -11.25 4.0625 C-12.51328125 4.05347656 -13.7765625 4.04445313 -15.078125 4.03515625 C-16.04234375 4.02355469 -17.0065625 4.01195313 -18 4 C-18.33 3.34 -18.66 2.68 -19 2 C-12.53991163 0.04978464 -6.7281627 -0.22262303 0 0 Z " fill="#A6A3A3" transform="translate(58,94)"/>
<path d="M0 0 C3.06225765 1.18539006 6.06793057 2.46766609 9.0625 3.8125 C14.66209618 6.31907599 20.32965373 8.65894333 26 11 C26 11.66 26 12.32 26 13 C20.31463394 11.18727459 14.77292617 9.15686788 9.26171875 6.8671875 C7.04797509 5.94959229 7.04797509 5.94959229 4.81640625 5.54296875 C3 5 3 5 1.25 2.4375 C0.8375 1.633125 0.425 0.82875 0 0 Z " fill="#D6401F" transform="translate(13,76)"/>
<path d="M0 0 C0.33 0 0.66 0 1 0 C1.33 2.64 1.66 5.28 2 8 C0.42466914 8.86883706 -1.16064509 9.71959068 -2.75 10.5625 C-3.63171875 11.03816406 -4.5134375 11.51382812 -5.421875 12.00390625 C-8.20701188 13.07998186 -9.26980214 13.06528748 -12 12 C-8.17819158 7.5991297 -5.52628901 6.19194469 0 5 C0 3.35 0 1.7 0 0 Z " fill="#FE8776" transform="translate(38,8)"/>
<path d="M0 0 C1.65 0 3.3 0 5 0 C4.01 0.33 3.02 0.66 2 1 C1.95875 1.66 1.9175 2.32 1.875 3 C0.44113289 7.9161158 -2.67185725 12.68912744 -7.19921875 15.23828125 C-8.09060547 15.61533203 -8.09060547 15.61533203 -9 16 C-8.67 15.01 -8.34 14.02 -8 13 C-7.34 13 -6.68 13 -6 13 C-5.9175 12.278125 -5.835 11.55625 -5.75 10.8125 C-4.8492343 7.43462862 -3.2326044 5.65121773 -1 3 C-0.67 2.01 -0.34 1.02 0 0 Z " fill="#FC5B3D" transform="translate(77,60)"/>
<path d="M0 0 C0.66 0 1.32 0 2 0 C2.33 1.32 2.66 2.64 3 4 C3.66 2.68 4.32 1.36 5 0 C5.05449838 1.72880982 5.09301688 3.45812712 5.125 5.1875 C5.14820312 6.15042969 5.17140625 7.11335938 5.1953125 8.10546875 C4.98896101 11.1635978 4.38418613 13.27518604 3 16 C2.34 16.33 1.68 16.66 1 17 C0.0008068 13.89139894 0.16963011 12.11388708 1 9 C0.67 8.34 0.34 7.68 0 7 C-0.04022391 4.6670134 -0.04320247 2.33293334 0 0 Z " fill="#A9A6A6" transform="translate(95,46)"/>
<path d="M0 0 C0.99 0.33 1.98 0.66 3 1 C2.38511719 1.58007812 1.77023438 2.16015625 1.13671875 2.7578125 C-4.99612747 8.64549577 -4.99612747 8.64549577 -9 16 C-9.66 16 -10.32 16 -11 16 C-10.67 13.69 -10.34 11.38 -10 9 C-9.34 9 -8.68 9 -8 9 C-7.773125 8.38125 -7.54625 7.7625 -7.3125 7.125 C-5.61583557 4.3780195 -3.94748289 4.13364727 -1 3 C-0.67 2.01 -0.34 1.02 0 0 Z " fill="#FC5939" transform="translate(29,24)"/>
<path d="M0 0 C2.78117672 1.0197648 3.81833102 1.66391238 5.25 4.3125 C6.00511726 7.01833686 6.1595955 9.20707882 6 12 C4.68 12 3.36 12 2 12 C0.86235649 7.73383684 0 4.43513689 0 0 Z " fill="#C83E20" transform="translate(88,27)"/>
<path d="M0 0 C1.32 0.66 2.64 1.32 4 2 C3.55269531 2.46148438 3.10539062 2.92296875 2.64453125 3.3984375 C-3.20564546 9.71014201 -7.56435675 16.40141328 -9 25 C-9.33 25 -9.66 25 -10 25 C-10.42456668 19.79512704 -9.20178413 16.86596663 -6.625 12.375 C-5.99851562 11.26898438 -5.37203125 10.16296875 -4.7265625 9.0234375 C-4.15679687 8.02570312 -3.58703125 7.02796875 -3 6 C-2.32059658 4.67311145 -1.64961326 3.34172458 -1 2 C-0.67 1.34 -0.34 0.68 0 0 Z " fill="#DAABA7" transform="translate(14,14)"/>
<path d="M0 0 C0.99 0 1.98 0 3 0 C5.09350689 3.4019487 5.17942163 6.05272412 5 10 C3.35 10 1.7 10 0 10 C0 6.7 0 3.4 0 0 Z " fill="#DDDBDB" transform="translate(0,43)"/>
<path d="M0 0 C1.98 0 3.96 0 6 0 C6 2.97 6 5.94 6 9 C4.68 9 3.36 9 2 9 C1.855625 7.88625 1.71125 6.7725 1.5625 5.625 C1.21627965 2.17857953 1.21627965 2.17857953 0 0 Z " fill="#C09591" transform="translate(28,45)"/>
<path d="M0 0 C4.56048012 3.61251516 8.01665146 6.98797445 11 12 C8 12 8 12 5.5625 9.625 C4.2940625 8.325625 4.2940625 8.325625 3 7 C0.83379456 5.70480005 0.83379456 5.70480005 -1 5 C-0.67 3.35 -0.34 1.7 0 0 Z " fill="#D03F21" transform="translate(56,29)"/>
<path d="M0 0 C4.29 0.66 8.58 1.32 13 2 C12.67 2.99 12.34 3.98 12 5 C10.20793453 4.85915204 8.41635083 4.71216299 6.625 4.5625 C5.62726562 4.48128906 4.62953125 4.40007813 3.6015625 4.31640625 C1 4 1 4 -1 3 C-0.67 2.01 -0.34 1.02 0 0 Z " fill="#C1B9B9" transform="translate(44,23)"/>
<path d="M0 0 C1.65 0.33 3.3 0.66 5 1 C6 4 6 4 6 7 C5.01 7.66 4.02 8.32 3 9 C0.9375 6.1875 0.9375 6.1875 -1 3 C-0.67 2.01 -0.34 1.02 0 0 Z " fill="#FC664D" transform="translate(31,63)"/>
<path d="M0 0 C2.89584583 1.29813778 4.98157613 2.53303749 7 5 C7.51171875 7.26171875 7.51171875 7.26171875 7.6875 9.6875 C7.75324219 10.49574219 7.81898437 11.30398437 7.88671875 12.13671875 C7.92410156 12.75160156 7.96148437 13.36648437 8 14 C7.34 14 6.68 14 6 14 C3.27651711 10.25521103 2.17282491 6.43998 1 2 C0.67 1.34 0.34 0.68 0 0 Z " fill="#E54826" transform="translate(78,14)"/>
<path d="M0 0 C2.38672669 2.96283313 4.7353371 5.94270509 7 9 C6.01 9 5.02 9 4 9 C3.54625 8.525625 3.0925 8.05125 2.625 7.5625 C0.53633317 5.55416651 -1.1783448 5.38130476 -4 5 C-4 4.01 -4 3.02 -4 2 C-2.68 1.34 -1.36 0.68 0 0 Z " fill="#D94323" transform="translate(33,54)"/>
<path d="M0 0 C0.99 0 1.98 0 3 0 C3.3690205 14.78132118 3.3690205 14.78132118 1 21 C0.01 20.67 -0.98 20.34 -2 20 C-1.69255859 19.19949219 -1.69255859 19.19949219 -1.37890625 18.3828125 C0.717157 12.58604428 1.62810501 7.14267934 2 1 C1.34 0.67 0.68 0.34 0 0 Z " fill="#A9A6A5" transform="translate(90,40)"/>
<path d="M0 0 C0.80824219 0.10183594 1.61648437 0.20367188 2.44921875 0.30859375 C3.06410156 0.39238281 3.67898437 0.47617187 4.3125 0.5625 C3.9825 1.8825 3.6525 3.2025 3.3125 4.5625 C0.3425 4.5625 -2.6275 4.5625 -5.6875 4.5625 C-6.3475 3.2425 -7.0075 1.9225 -7.6875 0.5625 C-4.59271121 -0.46909626 -3.16118607 -0.41232862 0 0 Z " fill="#BE908C" transform="translate(51.6875,29.4375)"/>
<path d="M0 0 C3.63 0.33 7.26 0.66 11 1 C10.67 2.32 10.34 3.64 10 5 C6.44219804 4.39009109 3.3171411 3.4216319 0 2 C0 1.34 0 0.68 0 0 Z " fill="#B23419" transform="translate(28,88)"/>
<path d="M0 0 C0.99 0 1.98 0 3 0 C2.46639094 4.49873484 0.75247024 7.15040149 -1.9375 10.75 C-2.64777344 11.71421875 -3.35804687 12.6784375 -4.08984375 13.671875 C-6 16 -6 16 -8 17 C-6.33333333 13.66666667 -4.66666667 10.33333333 -3 7 C-2.34 7 -1.68 7 -1 7 C-0.67 4.69 -0.34 2.38 0 0 Z " fill="#C73817" transform="translate(85,62)"/>
<path d="M0 0 C2.97841273 1.38283448 5.66802743 2.66802743 8 5 C8.75 8.6875 8.75 8.6875 9 12 C5.72764488 8.84884322 2.7974276 5.57449082 0 2 C0 1.34 0 0.68 0 0 Z " fill="#DDCFCF" transform="translate(83,15)"/>
<path d="M0 0 C-1.46436285 4.63714903 -1.46436285 4.63714903 -3.9375 6.3125 C-6 7 -6 7 -9 7 C-7.4576387 2.93377477 -4.5679954 0 0 0 Z " fill="#FF8777" transform="translate(69,67)"/>
<path d="M0 0 C0.99 0 1.98 0 3 0 C3.91297308 4.97063121 3.91297308 9.02936879 3 14 C0.81005752 10.71508627 0.64722661 9.16904361 0.375 5.3125 C0.30023438 4.31863281 0.22546875 3.32476562 0.1484375 2.30078125 C0.09945312 1.54152344 0.05046875 0.78226563 0 0 Z " fill="#C1BDBC" transform="translate(96,39)"/>
<path d="M0 0 C0.99 0.66 1.98 1.32 3 2 C0.36 2.99 -2.28 3.98 -5 5 C-4 2 -4 2 -1.9375 0.8125 C-1.298125 0.544375 -0.65875 0.27625 0 0 Z M-11 11 C-10.06934867 13.60582371 -9.85082593 14.64198224 -10.9375 17.25 C-11.4634375 18.11625 -11.4634375 18.11625 -12 19 C-13.2077558 15.37673261 -12.54311128 14.35853631 -11 11 Z " fill="#D63F1B" transform="translate(38,26)"/>
<path d="M0 0 C1.79133978 -0.05391993 3.58313899 -0.09275571 5.375 -0.125 C6.37273437 -0.14820313 7.37046875 -0.17140625 8.3984375 -0.1953125 C11 0 11 0 13 2 C13 2.99 13 3.98 13 5 C11.39566191 4.52140759 9.79153584 4.04210442 8.1875 3.5625 C7.29417969 3.29566406 6.40085937 3.02882813 5.48046875 2.75390625 C3.64526945 2.19612127 1.81966274 1.60655425 0 1 C0 0.67 0 0.34 0 0 Z " fill="#D7BDBB" transform="translate(61,4)"/>
<path d="M0 0 C0.99 0.33 1.98 0.66 3 1 C4.35384615 8.26153846 4.35384615 8.26153846 2.5625 12 C2.046875 12.66 1.53125 13.32 1 14 C0.34 13.67 -0.32 13.34 -1 13 C-0.62875 12.13375 -0.2575 11.2675 0.125 10.375 C1.14440048 6.44302674 0.57312496 4.67062491 -1 1 C-0.67 0.67 -0.34 0.34 0 0 Z " fill="#C6B8B6" transform="translate(24,45)"/>
<path d="M0 0 C0 0.66 0 1.32 0 2 C-0.56589844 2.19335938 -1.13179687 2.38671875 -1.71484375 2.5859375 C-2.81505859 2.97652344 -2.81505859 2.97652344 -3.9375 3.375 C-5.03384766 3.75785156 -5.03384766 3.75785156 -6.15234375 4.1484375 C-8.18682116 4.85271413 -8.18682116 4.85271413 -9 7 C-10.65 6.67 -12.3 6.34 -14 6 C-13.67 5.34 -13.34 4.68 -13 4 C-11.67288808 3.64270064 -10.33737094 3.31674575 -9 3 C-7.80375 2.484375 -6.6075 1.96875 -5.375 1.4375 C-2 0 -2 0 0 0 Z " fill="#FE735D" transform="translate(69,65)"/>
<path d="M0 0 C2.66735273 2.48952921 4.55746343 4.63408134 6 8 C2.74456771 7.65120368 1.98126893 6.97866739 -0.25 4.4375 C-1.11625 3.2309375 -1.11625 3.2309375 -2 2 C-1.34 1.34 -0.68 0.68 0 0 Z " fill="#D9CCCB" transform="translate(12,77)"/>
<path d="M0 0 C0 1.65 0 3.3 0 5 C-2.64 4.34 -5.28 3.68 -8 3 C-8 2.34 -8 1.68 -8 1 C-2.25 0 -2.25 0 0 0 Z " fill="#FC5C3E" transform="translate(45,65)"/>
<path d="M0 0 C0 0.66 0 1.32 0 2 C-4.455 3.485 -4.455 3.485 -9 5 C-5.28508772 -1.58552632 -5.28508772 -1.58552632 0 0 Z " fill="#FD5E40" transform="translate(41,19)"/>
<path d="M0 0 C2.64 0 5.28 0 8 0 C7.34 1.65 6.68 3.3 6 5 C4.68 4.67 3.36 4.34 2 4 C2.33 3.34 2.66 2.68 3 2 C2.01 2 1.02 2 0 2 C0 1.34 0 0.68 0 0 Z " fill="#E3E2E2" transform="translate(46,0)"/>
<path d="M0 0 C2.4375 0.625 2.4375 0.625 5 2 C5.8125 5.125 5.8125 5.125 6 8 C4.0625 7.6875 4.0625 7.6875 2 7 C1 4 1 4 1 2 C0.67 1.34 0.34 0.68 0 0 Z " fill="#D2BFBE" transform="translate(15,81)"/>
<path d="M0 0 C0.9075 0.309375 1.815 0.61875 2.75 0.9375 C5.16563338 1.7272263 7.52780285 2.42949297 10 3 C10 3.66 10 4.32 10 5 C7.25 5.3125 7.25 5.3125 4 5 C1.625 2.5 1.625 2.5 0 0 Z " fill="#F54E29" transform="translate(33,61)"/>
<path d="M0 0 C4 6 4 6 4 10 C4.66 10.33 5.32 10.66 6 11 C4.68 11 3.36 11 2 11 C0.57741188 7.17679443 -0.24042276 4.08718695 0 0 Z " fill="#E14725" transform="translate(86,29)"/>
<path d="M0 0 C1.82421875 1.21484375 1.82421875 1.21484375 3.6875 2.9375 C4.31011719 3.50339844 4.93273437 4.06929687 5.57421875 4.65234375 C6.04472656 5.09707031 6.51523438 5.54179687 7 6 C3.73204297 6 1.9178052 5.42149484 -1 4 C-1.66 3.01 -2.32 2.02 -3 1 C-2.01 0.67 -1.02 0.34 0 0 Z " fill="#D3C1C0" transform="translate(82,11)"/>
<path d="M0 0 C2.25245881 2.68841859 3.88213958 4.64641875 5 8 C3.68 8.33 2.36 8.66 1 9 C0.45627049 5.94152152 0 3.11227195 0 0 Z " fill="#C6B9B9" transform="translate(91,21)"/>
<path d="M0 0 C2.86724686 0.57344937 3.8614515 0.8614515 6 3 C6 3.99 6 4.98 6 6 C3.37812506 4.95125002 2.20628639 4.35068687 0.75 1.875 C0.5025 1.25625 0.255 0.6375 0 0 Z " fill="#FB6B54" transform="translate(75,19)"/>
<path d="M0 0 C0.94875 0.04125 1.8975 0.0825 2.875 0.125 C3.205 1.115 3.535 2.105 3.875 3.125 C0.67437313 4.72531344 -1.84771806 3.15673691 -5.125 2.125 C-3.125 0.125 -3.125 0.125 0 0 Z " fill="#D9D2D1" transform="translate(43.125,-0.125)"/>
<path d="M0 0 C-5.625 3 -5.625 3 -9 3 C-9 2.34 -9 1.68 -9 1 C-5.57367167 -0.61798838 -3.61944899 -1.34053666 0 0 Z " fill="#E14A28" transform="translate(68,83)"/>
<path d="M0 0 C0.66 0.33 1.32 0.66 2 1 C1.01 1.33 0.02 1.66 -1 2 C-1 2.66 -1 3.32 -1 4 C-2.65 4.66 -4.3 5.32 -6 6 C-6 5.01 -6 4.02 -6 3 C-4.03533587 1.93224776 -2.03144641 0.93446535 0 0 Z " fill="#CB3E1E" transform="translate(66,83)"/>
<path d="M0 0 C0 0.99 0 1.98 0 3 C-3.05263664 3.98120464 -4.94736336 3.98120464 -8 3 C-7.67 2.34 -7.34 1.68 -7 1 C-4.67843403 0.59270772 -2.3431213 0.25561323 0 0 Z " fill="#BA9B97" transform="translate(56,27)"/>
</svg>
